<?xml version="1.0" standalone="no"?>
<!DOCTYPE svg PUBLIC "-//W3C//DTD SVG 20010904//EN"
 "http://www.w3.org/TR/2001/REC-SVG-20010904/DTD/svg10.dtd">
<svg version="1.0" xmlns="http://www.w3.org/2000/svg"
 width="450.000000pt" height="450.000000pt" viewBox="0 0 450.000000 450.000000"
 preserveAspectRatio="xMidYMid meet">
<metadata>
Created by potrace 1.10, written by Peter Selinger 2001-2011
</metadata>
<g transform="translate(0.000000,450.000000) scale(0.100000,-0.100000)">
<path fill-opacity="0"  stroke="#000000" stroke-width="50" d="M1943 3954 c-103 -50 -168 -160 -162 -272 l3 -47 -224 -92 -224 -92
-33 39 c-77 90 -222 118 -331 64 -186 -92 -215 -339 -56 -472 l42 -35 -49
-141 c-28 -77 -64 -180 -81 -228 l-31 -88 -42 0 c-107 0 -217 -70 -261 -165
-34 -72 -33 -172 2 -243 49 -99 142 -155 256 -155 l67 0 77 -178 76 -179 -35
-39 c-61 -68 -72 -96 -72 -191 0 -98 17 -140 82 -202 54 -52 115 -78 189 -78
76 0 135 20 189 64 l42 35 206 -77 207 -77 0 -46 c0 -75 26 -142 75 -197 59
-66 121 -95 205 -95 158 -1 280 118 284 277 l2 59 197 73 196 74 53 -54 c115
-115 290 -115 402 0 50 52 70 99 74 182 5 92 -15 150 -73 208 l-42 42 102 218
102 219 75 1 c88 2 148 25 201 78 52 51 79 110 85 182 9 115 -44 211 -149 269
-45 25 -67 30 -128 31 l-74 2 -94 217 -94 218 33 27 c114 94 127 280 28 393
-113 128 -316 132 -423 7 l-33 -39 -220 92 -221 91 0 67 c0 120 -73 225 -183
264 -66 23 -155 19 -217 -11z m-82 -449 c71 -77 195 -106 303 -69 30 10 65 34
96 65 l48 48 219 -90 218 -90 1 -67 c2 -161 110 -270 275 -280 l78 -4 76 -177
c43 -97 84 -193 92 -214 l16 -38 -41 -42 c-59 -60 -82 -117 -82 -202 0 -82 20
-133 74 -193 20 -21 36 -44 36 -49 0 -5 -44 -104 -98 -219 l-98 -209 -84 -6
c-98 -6 -145 -26 -201 -86 -53 -55 -72 -99 -77 -178 l-4 -70 -200 -74 -199
-74 -15 22 c-54 77 -133 116 -234 116 -90 -1 -143 -24 -206 -91 l-42 -44 -198
74 -199 74 3 81 c3 68 0 88 -20 133 -28 60 -75 110 -133 141 -32 17 -57 22
-126 22 l-87 0 -74 175 -75 175 37 35 c51 48 82 112 88 186 7 90 -17 153 -84
220 -30 29 -54 57 -54 61 0 5 35 108 77 229 l77 222 67 4 c155 11 261 125 262
279 l0 66 221 91 c122 50 222 91 223 92 2 0 21 -20 44 -45z"/>
</g>
</svg>
