<svg width="450" height="450" xmlns="http://www.w3.org/2000/svg" preserveAspectRatio="xMidYMid meet" version="1.0">
 <metadata>Created by potrace 1.10, written by Peter Selinger 2001-2011</metadata>

 <g>
  <title>Layer 1</title>
  <path id="svg_2" d="m130.3,100.99999zm55.8,-1.5c7.1,7.7 19.5,10.6 30.3,6.9c3,-1 6.5,-3.4 9.6,-6.5l4.8,-4.8l21.9,9l21.8,9l0.1,6.7c0.2,16.1 11,27 27.5,28l7.8,0.4l7.6,17.7c4.3,9.7 8.4,19.3 9.2,21.4l1.6,3.8l-4.1,4.2c-5.9,6 -8.2,11.7 -8.2,20.2c0,8.2 2,13.3 7.4,19.3c2,2.1 3.6,4.4 3.6,4.9c0,0.5 -4.4,10.4 -9.8,21.9l-9.8,20.9l-8.4,0.6c-9.8,0.6 -14.5,2.6 -20.1,8.6c-5.3,5.5 -7.2,9.9 -7.7,17.8l-0.4,7l-20,7.4l-19.9,7.4l-1.5,-2.2c-5.4,-7.7 -13.3,-11.6 -23.4,-11.6c-9,0.1 -14.3,2.4 -20.6,9.1l-4.2,4.4l-19.8,-7.4l-19.9,-7.4l0.3,-8.1c0.3,-6.8 0,-8.8 -2,-13.3c-2.8,-6 -7.5,-11 -13.3,-14.1c-3.2,-1.7 -5.7,-2.2 -12.6,-2.2l-8.7,0l-7.4,-17.5l-7.5,-17.5l3.7,-3.5c5.1,-4.8 8.2,-11.2 8.8,-18.6c0.7,-9 -1.7,-15.3 -8.4,-22c-3,-2.9 -5.4,-5.7 -5.4,-6.1c0,-0.5 3.5,-10.8 7.7,-22.9l7.7,-22.2l6.7,-0.4c15.5,-1.1 26.1,-12.5 26.2,-27.9l0,-6.6l22.1,-9.1c12.2,-5 22.2,-9.1 22.3,-9.2c0.2,0 2.1,2 4.4,4.5z" opacity="undefined" stroke-linecap="undefined" stroke-linejoin="undefined" stroke="#000" fill="#fff"/>
 </g>
</svg>