<svg width="450" height="450" xmlns="http://www.w3.org/2000/svg" preserveAspectRatio="xMidYMid meet" version="1.0">
 <metadata>Created by potrace 1.10, written by Peter Selinger 2001-2011</metadata>

 <g>
  <title>Layer 1</title>
  <path id="svg_2" d="m194.3,54.59999c-10.3,5 -16.8,16 -16.2,27.2l0.3,4.7l-22.4,9.2l-22.4,9.2l-3.3,-3.9c-7.7,-9 -22.2,-11.8 -33.1,-6.4c-18.6,9.2 -21.5,33.9 -5.6,47.2l4.2,3.5l-4.9,14.1c-2.8,7.7 -6.4,18 -8.1,22.8l-3.1,8.8l-4.2,0c-10.7,0 -21.7,7 -26.1,16.5c-3.4,7.2 -3.3,17.2 0.2,24.3c4.9,9.9 14.2,15.5 25.6,15.5l6.7,0l7.7,17.8l7.6,17.9l-3.5,3.9c-6.1,6.8 -7.2,9.6 -7.2,19.1c0,9.8 1.7,14 8.2,20.2c5.4,5.2 11.5,7.8 18.9,7.8c7.6,0 13.5,-2 18.9,-6.4l4.2,-3.5l20.6,7.7l20.7,7.7l0,4.6c0,7.5 2.6,14.2 7.5,19.7c5.9,6.6 12.1,9.5 20.5,9.5c15.8,0.1 28,-11.8 28.4,-27.7l0.2,-5.9l19.7,-7.3l19.6,-7.4l5.3,5.4c11.5,11.5 29,11.5 40.2,0c5,-5.2 7,-9.9 7.4,-18.2c0.5,-9.2 -1.5,-15 -7.3,-20.8l-4.2,-4.2l10.2,-21.8l10.2,-21.9l7.5,-0.1c8.8,-0.2 14.8,-2.5 20.1,-7.8c5.2,-5.1 7.9,-11 8.5,-18.2c0.9,-11.5 -4.4,-21.1 -14.9,-26.9c-4.5,-2.5 -6.7,-3 -12.8,-3.1l-7.4,-0.2l-9.4,-21.7l-9.4,-21.8l3.3,-2.7c11.4,-9.4 12.7,-28 2.8,-39.3c-11.3,-12.8 -31.6,-13.2 -42.3,-0.7l-3.3,3.9l-22,-9.2l-22.1,-9.1l0,-6.7c0,-12 -7.3,-22.5 -18.3,-26.4c-6.6,-2.3 -15.5,-1.9 -21.7,1.1z" opacity="undefined" stroke-width="5" stroke="#000000" fill-opacity="0"/>
 </g>
</svg>